<?xml version="1.0" standalone="no"?>
<!DOCTYPE svg PUBLIC "-//W3C//DTD SVG 1.1//EN" "http://www.w3.org/Graphics/SVG/1.1/DTD/svg11.dtd" >
<svg xmlns="http://www.w3.org/2000/svg">
<metadata></metadata>
<defs>
<font id="crevil_blackcondensed_regular" horiz-adv-x="786" >
<font-face units-per-em="2048" ascent="1434" descent="-614" />
<missing-glyph horiz-adv-x="430" />
<glyph horiz-adv-x="2048" />
<glyph horiz-adv-x="2048" />
<glyph unicode="&#xd;" horiz-adv-x="2048" />
<glyph unicode=" "  horiz-adv-x="430" />
<glyph unicode="&#x09;" horiz-adv-x="430" />
<glyph unicode="&#xa0;" horiz-adv-x="430" />
<glyph unicode="!" horiz-adv-x="395" d="M94 0l23 203h221l-25 -203h-219zM133 340l127 1036h221l-127 -1036h-221z" />
<glyph unicode="&#x22;" horiz-adv-x="413" d="M213 1042l43 344h86l-43 -344h-86zM369 1042l43 344h86l-43 -344h-86z" />
<glyph unicode="#" horiz-adv-x="843" d="M137 535l15 122h165l68 160h-152l15 123h188l101 242l73 -47l-82 -195h131l93 223l73 -47l-71 -176h133l-15 -123h-170l-67 -160h151l-14 -122h-186l-111 -275l-76 47l93 228h-132l-100 -246l-74 47l82 199h-131zM412 657h131l65 160h-129z" />
<glyph unicode="$" horiz-adv-x="772" d="M94 0l10 86h170l121 567q-109 22 -166 100.5t-39 219.5l5 35q22 162 108.5 265t200.5 103h47l29 140h127l-31 -140h112l-10 -84h-119l-116 -559q110 -21 167.5 -105.5t39.5 -226.5l-5 -36q-19 -183 -102.5 -274t-204.5 -91h-49l-22 -111l-136 2l25 109h-162zM410 102 q91 51 118 263l4 36q9 89 -26 158zM410 973q-13 -92 22 -154l92 438q-90 -73 -110 -249z" />
<glyph unicode="%" horiz-adv-x="974" d="M195 68l583 1136q-52 -18 -102 -18t-101 14q11 -61 3 -113q-12 -111 -78 -190q-64 -80 -142 -80q-79 0 -120 80q-45 76 -33 190t80 191q64 80 139 80q23 0 49.5 -9t50.5 -20.5t31 -13.5q75 -27 131 -27q64 0 197 98l71 -81l-680 -1305zM305 1087q-6 -52 14 -90 q19 -36 56 -36t65 36q31 40 37 90q6 53 -14 91q-17 36 -55 36q-40 0 -66 -36q-32 -40 -37 -91zM565 301q15 114 80 191q63 79 141 79q79 0 123 -79q44 -74 31 -191q-15 -111 -78 -190q-64 -80 -143 -80q-77 0 -121 80q-45 76 -33 190zM668 301q-8 -48 14 -90q23 -37 55 -37 q37 0 66 37q28 35 37 90q5 51 -15 90q-21 37 -57 37t-63 -37q-32 -40 -37 -90z" />
<glyph unicode="&#x26;" horiz-adv-x="849" d="M117 377q15 120 80 237q35 64 66 105.5t81 83.5q-63 162 -51 272q14 102 47 160q51 93 138.5 125.5t178.5 17.5l-18 -237q-212 104 -211 -39q1 -81 84 -287q2 -5 7 -16q3 -9 5 -13l94 -221l66 -162q58 94 68 115l96 -57q-8 -22 -29.5 -58.5t-48.5 -77t-33 -51.5 q13 -28 41 -83t33 -66l-143 -127q-27 53 -54 113q-45 -42 -80.5 -63.5t-82.5 -37.5q-17 -5 -33 -7t-37.5 -2.5t-28.5 -0.5q-60 0 -110 29t-80 82q-64 106 -45 266zM304.5 478.5q-10.5 -78.5 3.5 -148t50 -120t84 -52.5q42 0 66 12t59 55q-76 185 -180 428q-17 -17 -35 -43 q-37 -53 -47.5 -131.5z" />
<glyph unicode="'" horiz-adv-x="258" d="M213 1026l43 363h86l-43 -363h-86z" />
<glyph unicode="(" horiz-adv-x="530" d="M123 143q0 159 22 359q28 230 93 456q63 211 139 342q71 110 119 134q29 14 61.5 21t51.5 7.5t45 -1t28 -1.5l-8 -61q-27 -3 -51 -27q-32 -29 -66 -92q-65 -143 -122 -365t-81 -413q-15 -119 -24 -267t-6 -241q9 -190 47 -293q24 -66 53 -86q13 -10 29 -10l-9 -62 q-123 -27 -206 60q-45 55 -66 125q-49 157 -49 415z" />
<glyph unicode=")" horiz-adv-x="530" d="M-29 -459l6 62q28 3 54 26q35 31 63 92q66 143 123.5 366t81.5 413q35 307 29 508q-6 180 -47 292q-23 64 -52 86q-16 11 -28 11l8 61q124 28 207 -59q43 -53 65 -125q47 -151 47 -416q3 -160 -22 -358q-31 -255 -92 -457q-59 -208 -140 -342q-66 -108 -118 -133 q-28 -14 -60.5 -21t-51.5 -8t-45.5 0.5t-27.5 1.5z" />
<glyph unicode="*" horiz-adv-x="524" d="M209 1001l125 123l-92 121l67 96l66 -90l16 125h86l-16 -125l86 88l43 -96l-119 -119l88 -120l-65 -97l-64 88l-14 -123h-86l14 123l-92 -90z" />
<glyph unicode="+" horiz-adv-x="731" d="M150 641l16 123h252l45 373h86l-45 -373h250l-15 -123h-250l-49 -389h-86l49 389h-253z" />
<glyph unicode="," horiz-adv-x="286" d="M94 76l8 53q3 34 23 58t45 24q23 0 36.5 -24t10.5 -58l-39 -305h-78l19 141q2 15 -13 47.5t-12 63.5z" />
<glyph unicode="-" horiz-adv-x="581" d="M129 471l16 123h439l-17 -123h-438z" />
<glyph unicode="." horiz-adv-x="284" d="M86 0l25 203h112l-8 -70l-4 -33l-12 -100h-113z" />
<glyph unicode="/" horiz-adv-x="727" d="M80 68l668 1339l71 -82l-659 -1325z" />
<glyph unicode="0" d="M88 375l78 624q18 166 107.5 271.5t201.5 105.5h119q110 0 172 -104.5t45 -272.5l-78 -624q-20 -167 -109 -271t-200 -104h-119q-111 0 -173 104t-44 271zM303 293q-25 -209 78 -209h10q29 0 49 15.5t32.5 47t19 64t12.5 82.5l96 788q6 59 8 105.5t-14.5 75t-54.5 28.5 h-11q-105 0 -127 -209z" />
<glyph unicode="1" horiz-adv-x="425" d="M129 0l160 1290h-86l10 86h311l-170 -1376h-225z" />
<glyph unicode="2" d="M72 0l22 193q4 32 10 64.5t27 85t51 91t85 67.5t126 29h-1h-1h-1h-2h-1h-1h-2h-9q96 0 145 45q32 35 51 109q16 70 23 127q3 24 10.5 90.5t14 120.5t6.5 55q10 86 -24.5 146.5t-94.5 60.5h-199l10 92h230h78q111 0 176 -89.5t45 -239.5q0 -1 -6 -47.5t-13 -105.5t-10 -83 q-31 -257 -188 -338q-68 -35 -158 -35h1h1h1h1h1h2h9q-47 -1 -72.5 -17.5t-45.5 -47.5q-35 -56 -45 -150l-17 -133h361l-11 -90h-585z" />
<glyph unicode="3" horiz-adv-x="729" d="M72 0l12 92h215q61 0 111 60.5t61 146.5q34 281 -25 346q-17 20 -59 23h-92l14 106h74q47 0 74 19q20 13 32 36q24 47 39 203q3 17 4.5 31t2 41.5t-2 49.5t-11 47.5t-22.5 42.5t-38.5 28.5t-57.5 11.5h-167l10 92h276q62 0 108 -18t72 -48t42 -70t17 -85t-3 -92 q-19 -157 -39 -219q-26 -75 -62 -119q24 -40 35 -76q33 -108 13 -256l-7 -63q-20 -151 -105.5 -240.5t-197.5 -89.5h-323z" />
<glyph unicode="4" horiz-adv-x="768" d="M186 932l56 444h225l-66 -526q-10 -86 24.5 -146.5t94.5 -60.5h29l90 733h225l-168 -1376h-225l66 557h-136q-113 0 -174 107t-41 268z" />
<glyph unicode="5" d="M74 0l10 86h272q60 0 110 60.5t60 146.5q0 1 3 24.5t7 59t7 59.5q9 66 18 167.5t6 129.5q-5 32 -15 49.5t-34 34.5q-44 23 -108 23h-236l12 94q15 120 39 207q28 100 76 153q32 40 80 60q45 22 123 22h119h202l-10 -88q-96 2 -215 2q-60 0 -92 -18q-42 -20 -62 -103 q-17 -88 -36 -243h118q138 0 201 -80q57 -70 57 -213q-4 -47 -8 -91t-6.5 -73t-5 -51t-3.5 -32l-1 -11q-22 -168 -107 -271.5t-202 -103.5h-76h-303z" />
<glyph unicode="6" d="M117 375l63 497q16 155 43 269q32 102 78 153q32 40 80 60q45 22 123 22h307l-10 -82q-188 2 -201 2q-63 0 -92 -18q-43 -20 -62 -102l-51 -359h158q115 0 179 -78t46 -227l-20 -156q-19 -158 -104.5 -257t-200.5 -99h-119q-113 0 -175 107t-42 268zM325.5 136 q12.5 -52 69.5 -52h13q56 0 80 46.5t36 143.5l41 320q10 79 -25 108t-104 29h-51l-57 -457q-15 -86 -2.5 -138z" />
<glyph unicode="7" horiz-adv-x="749" d="M209 0q0 1 201.5 567.5t201.5 585.5q8 97 -37 121q-25 18 -86 18h-258l11 84h231h119q77 -1 115.5 -17.5t68.5 -58.5q28 -40 37.5 -77t1.5 -101q1 -38 -160.5 -494t-226.5 -628h-219z" />
<glyph unicode="8" horiz-adv-x="792" d="M117 375l2 16q20 150 78 256q25 42 59 76q-33 58 -39 119v61.5t4.5 58t5.5 52.5q21 159 117 262q95 98 201 98h41q108 0 174 -98q73 -99 55 -262q-12 -101 -35 -172q-19 -66 -63 -119q30 -42 37 -76q32 -94 14 -256v-16q-20 -156 -110 -265.5t-199 -109.5h-125 q-109 0 -172.5 110t-44.5 265zM318 215q-2 -43 10.5 -83t38.5 -48q27 -7 52 -2t45.5 23t39.5 64.5t35 123.5l4 16q1 9 5.5 44.5t6 56t4 55.5t1 59t-5 51.5t-13 46.5t-23.5 31q-39 34 -82 0q-38 -25 -63 -90q-17 -44 -49 -270q-4 -35 -6 -78zM394 875.5q1 -27.5 5.5 -55 t20.5 -42t41 -16.5h-3h9q26 0 45.5 9t32.5 28.5t21.5 39.5t15 54.5t10 60t8 68t8.5 68.5q25 176 -35 198q-38 3 -59 -14q-28 -28 -42 -54.5t-34 -103.5q-2 -10 -11.5 -47t-14.5 -62t-12 -64.5t-6 -67z" />
<glyph unicode="9" d="M90 0l10 82q188 -2 203 -2q63 0 92 18q43 19 62 103l51 358h-160q-115 0 -179 78t-46 227l20 156q20 158 106 257t200 99h118q113 0 175 -107t42 -268l-61 -497q-17 -164 -45 -268q-29 -102 -78 -154q-32 -40 -78 -59q-50 -23 -123 -23h-309zM338 782 q-10 -80 24.5 -108.5t104.5 -28.5h51l55 457q15 86 2.5 138t-67.5 52h-12q-57 0 -82 -46.5t-37 -143.5z" />
<glyph unicode=":" horiz-adv-x="294" d="M96 0l25 203h112l-24 -203h-113zM174 717l25 203h114l-26 -203h-113z" />
<glyph unicode=";" horiz-adv-x="290" d="M98 76l8 53q3 34 23 58t45 24q23 0 36.5 -24t10.5 -58l-39 -305h-78l19 141q2 15 -13 47.5t-12 63.5zM174 717l25 203h114l-26 -203h-113z" />
<glyph unicode="&#x3c;" horiz-adv-x="475" d="M141 680l13 104l346 361l47 -82l-316 -336l236 -338l-68 -82z" />
<glyph unicode="=" horiz-adv-x="667" d="M131 483l14 123h525l-17 -123h-522zM170 791l14 122h523l-15 -122h-522z" />
<glyph unicode="&#x3e;" horiz-adv-x="475" d="M104 389l318 338l-232 336l68 82l256 -361l-12 -104l-350 -373z" />
<glyph unicode="?" horiz-adv-x="710" d="M131 961q10 97 37.5 172t65 121t87.5 75t99 40t104 11q133 0 209 -113t53 -298q-15 -110 -71 -193q-52 -81 -115 -151q-6 -7 -29.5 -33.5t-31.5 -36.5t-24.5 -31.5t-26.5 -41.5t-19 -44q-14 -45 -27 -137h-209q25 157 37 184q12 32 34 67t35 52.5t49 58.5t40 46 q35 38 68 79q28 34 54.5 113t35.5 139q15 126 -15 201.5t-86 75.5q-28 0 -49.5 -22.5t-33 -53.5t-19 -77.5t-9.5 -80t-4 -75t-3 -50.5zM193 0l18 158h219l-18 -158h-219z" />
<glyph unicode="@" horiz-adv-x="1189" d="M35.5 -17.5q-11.5 109.5 3.5 220.5l57 465q18 149 60.5 271.5t101.5 180.5q92 90 250 90h559q119 0 176 -120q23 -48 31.5 -140t-0.5 -157l-53 -428q-23 -190 -119 -304q-20 -23 -48.5 -36.5t-45 -16.5t-58.5 -5t-49 -3h-381q-105 0 -168 72q-35 36 -51.5 96t-7.5 129 q13 117 98 199q76 73 195 73h162l8 56q10 86 -25.5 147.5t-95.5 61.5h-178l12 90h285q113 0 177 -89t44 -241l-60 -490q76 1 121.5 57.5t57.5 137.5l65 535q6 34 4 107.5t-14 98.5q-31 64 -94 64h-559q-229 0 -277 -395l-69 -547q-16 -143 18.5 -224t124.5 -81h760l-15 -127 h-759q-127 0 -193 90q-39 53 -50.5 162.5zM516 283q-11 -83 33.5 -137t89.5 -54h51l47 387h-55q-136 0 -166 -196z" />
<glyph unicode="A" d="M74 0l129 1047q18 151 104 240t199 89h381l-168 -1376h-223l63 545h-197l-65 -545h-223zM375 637h196l82 647h-53q-60 0 -110 -60.5t-60 -146.5z" />
<glyph unicode="B" d="M74 0l170 1376h340q107 0 172 -100q28 -42 40 -116q10 -59 9 -109v-23q-2 -19 -6 -49.5t-24.5 -104.5t-49.5 -124q20 -28 33 -70q20 -65 20 -153q0 -48 -6 -103l-6 -49q-20 -156 -110 -265.5t-199 -109.5h-383zM309 92h51q61 0 111 60.5t61 146.5l21 170q6 40 6 75 q0 29 -4 56q-13 68 -41 92q-24 21 -65 23h-62zM399 805h62q28 0 51 28t35.5 63t22 81.5t12.5 69.5t4 40q2 15 2 31q0 20 -3 44q-6 44 -22 67q-31 55 -106 55z" />
<glyph unicode="C" horiz-adv-x="753" d="M76 330l90 717q18 151 104 240t199 89h119q114 0 176 -98q46 -73 46 -192q0 -40 -5 -85h-225q16 116 16 179q0 28 -3 46q-10 58 -69 58h-14q-29 0 -50 -15.5t-33.5 -46t-20 -64t-13.5 -81.5l-96 -778q-7 -69 -7 -110q0 -43 16 -69q18 -28 56 -28h13q58 0 83.5 62 t45.5 221h223q-22 -179 -109 -277t-200 -98h-119q-113 0 -177 90q-50 70 -50 177q0 30 4 63z" />
<glyph unicode="D" d="M70 0l170 1376h381q113 0 177 -89q49 -69 50 -176q0 -30 -4 -64l-88 -717q-20 -151 -105.5 -240.5t-197.5 -89.5h-383zM305 92h51q61 0 111 60.5t61 146.5l97 778q2 19 2 37q1 64 -27 110q-36 60 -96 60h-51z" />
<glyph unicode="E" horiz-adv-x="729" d="M74 0l127 1047q20 151 105.5 240t197.5 89h121h202l-12 -92h-215q-61 0 -111 -60.5t-61 -146.5l-39 -276h359l-11 -90h-356l-76 -619h363l-11 -92h-583z" />
<glyph unicode="F" horiz-adv-x="686" d="M72 0l123 1001q22 164 109 269.5t200 105.5h117l204 -2l-10 -84h1h-1h-1h-1h-1h-1h-1h-1h-1h-1h-1h-1h-1h-1h-1h-1h-1h-1h-1h-1h-1h-1h-1h-1h-1h-1h-1h-1h-1h-1h-1h-1h-1h-1h-1h-1h-1h-1h-1h-1h-1h-1h-1h-1h-1h-1h-1h-1h-1h-1h-1h-1h-1h-1h-1h-1h-1h-1h-1h-1h-1h-1h-1h-1 h-1h-1h-1h-1h-1h-1h-1h-1h-1h-1h-1h-1h-1h-1h-1h-1h-1h-1h-1h-1h-1h-1h-1h-1h-1h-1h-1h-1h-1h-1h-1h-1h-1h-1h-1h-1h-1h-1h-1h-1h-1h-1h-1h-1h-1h-1h-1h-1h-1h-1h-1h-1h-1h-1h-1h-1h-1h-1h-1h-1h-1h-1h-1h-1h-1h-1h-1h-1h-1h-1h-1h-1h-1h-1h-1h-1h-1h-1h-1h-1h-1h-1h-1h-1 h-1h-1h-1h-1h-1h-1h-1h-1h-1h-1h-1h-1h-1h-1h-1h-1h-1h-1h-1h-1h-1h-1h-1h-1h-1h-1h-1h-1h-1h-1h-1h-1h-1h-1h-1h-1h-1h-1h-1h-1h-1h-1h-1h-1h-1h-1h-1h-1h-1h-1h-1h-1h-1h-1h-1h-1h-1h-1h-1h-1h-9q-60 0 -111 -60.5t-61 -146.5l-33 -280h359l-13 -86h-356l-90 -717h-223z " />
<glyph unicode="G" d="M117 375l78 626q20 166 108.5 269.5t200.5 103.5h119q111 0 173 -103q48 -80 48 -198q0 -34 -4 -72h-226q12 109 12 170q0 28 -3 46q-10 73 -54 73h-12q-105 0 -127 -207l-98 -790q-5 -40 -5 -73q0 -134 83 -134h10q26 0 46 23.5t33 71.5t19.5 81t14.5 91q0 3 0.5 5 t1 4.5t0.5 4.5l30 245h-67l10 84h293l-39 -321q-20 -166 -108.5 -269.5t-200.5 -105.5h-119q-111 2 -173 105q-48 80 -48 198q0 34 4 72z" />
<glyph unicode="H" d="M72 0l170 1376h225l-78 -620h195l75 620h226l-170 -1376h-226l82 672h-192l-82 -672h-225z" />
<glyph unicode="I" horiz-adv-x="368" d="M72 0l170 1376h225l-170 -1376h-225z" />
<glyph unicode="J" horiz-adv-x="524" d="M72 0l10 84q68 0 120.5 61t61.5 148l135 1083h224l-123 -1001q-24 -186 -107 -280.5t-203 -94.5h-118z" />
<glyph unicode="K" d="M72 0l170 1376h223l-70 -524l375 524h98l-432 -624l350 -752h-245l-195 416l-53 -416h-221z" />
<glyph unicode="L" horiz-adv-x="686" d="M70 0l170 1376h225l-160 -1292h361l-11 -84h-585z" />
<glyph unicode="M" horiz-adv-x="1052" d="M72 0l170 1376h125l180 -1194l479 1194h123l-168 -1376h-238l99 666l-264 -666h-97l-102 670l-70 -670h-237z" />
<glyph unicode="N" horiz-adv-x="843" d="M72 0l170 1376h118l224 -993l131 993h225l-168 -1376h-201l-174 838l-100 -838h-225z" />
<glyph unicode="O" horiz-adv-x="729" d="M88 375l78 624q18 166 107.5 271.5t201.5 105.5h119q110 0 172 -104q49 -82 48 -204q0 -33 -3 -69l-78 -624q-20 -167 -109 -271t-200 -104h-119q-111 0 -173 104q-48 81 -48 199q0 34 4 72zM303 293q-5 -41 -5 -74q0 -135 83 -135h10q29 0 49 15.5t32.5 47t19 64 t12.5 82.5l96 788q6 59 8 105v10q0 40 -14 66q-16 28 -55 28h-11q-105 0 -127 -209z" />
<glyph unicode="P" horiz-adv-x="700" d="M72 0l168 1376h338q111 0 172 -98q51 -78 50 -193q0 -32 -3 -67q-5 -33 -13 -96t-12 -88q-12 -109 -74 -180.5t-178 -71.5h-153l-72 -582h-223zM375 666h35q54 0 94 54t47 114q14 100 22.5 164.5t10.5 82t2 19.5q1 13 1 26q0 59 -30 111q-18 23 -38 35t-32 14.5t-34 3.5z " />
<glyph unicode="Q" horiz-adv-x="847" d="M117 375l78 624q18 166 107.5 271.5t201.5 105.5h119q110 0 172 -104q49 -83 49 -204q0 -33 -4 -69l-78 -624q-10 -72 -29 -123l101 -74l-80 -172l-111 84q-87 -90 -190 -90h-119q-111 0 -173 104q-48 81 -48 199q0 34 4 72zM332 293q-5 -41 -5 -74q0 -135 83 -135h10 q70 0 94 104l-96 76l69 174l58 -43l84 686q6 59 8 105v10q0 40 -15 66q-17 28 -55 28h-10q-105 0 -127 -209z" />
<glyph unicode="R" horiz-adv-x="743" d="M72 0l168 1376h338q113 0 172 -100q51 -78 52 -191q0 -32 -5 -67q-9 -74 -31 -199q-45 -216 -186 -229l165 -590h-204l-142 584h-32l-70 -584h-225zM379 674h53q85 0 119 147l39 279q2 15 2 30q0 60 -27 107q-37 53 -103 53h-7z" />
<glyph unicode="S" horiz-adv-x="772" d="M94 0l10 86h244q44 0 77.5 26.5t53.5 71t31.5 88.5t17.5 93l4 36q2 19 2 37q0 64 -27 120q-35 74 -89 93h-4q-116 15 -179 95q-49 62 -49 165q0 29 4 62l5 35q22 162 108.5 265t200.5 103h284l-10 -84h-184q-77 -16 -122.5 -99t-57.5 -185l-4 -35q-3 -22 -3 -42 q1 -61 25 -111q32 -68 92 -83q119 -16 182 -102q48 -66 48 -169q0 -31 -4 -65l-5 -36q-19 -183 -102.5 -274t-204.5 -91h-344z" />
<glyph unicode="T" horiz-adv-x="681" d="M72 1294l10 82h743l-10 -82h-256l-160 -1294h-225l160 1294h-262z" />
<glyph unicode="U" d="M117 375l125 1001h225l-135 -1083q-5 -40 -5 -73q0 -134 83 -134h10q20 0 35 6.5t25.5 22t18 31t13 43t9 48.5t7.5 56l134 1083h223l-123 -1001q-21 -174 -107 -274.5t-202 -100.5h-119q-113 0 -175 107q-47 81 -47 193q0 36 5 75z" />
<glyph unicode="V" horiz-adv-x="804" d="M143 1376h246l121 -919h6l332 919h96l-498 -1376h-127z" />
<glyph unicode="W" horiz-adv-x="1343" d="M170 1376h246l119 -919h8l172 473l-58 446h246l119 -919h8l332 919h96l-497 -1376h-127l-95 733l-266 -733h-127z" />
<glyph unicode="X" horiz-adv-x="876" d="M43 0l352 584l-282 792h245l199 -573l348 573h101l-410 -692l244 -684h-250l-148 469l-286 -469h-113z" />
<glyph unicode="Y" horiz-adv-x="729" d="M166 989l47 387h217l-47 -387q-7 -52 -10 -91q-2 -22 -2 -45q0 -20 1 -41q3 -45 18.5 -74.5t43.5 -39.5h6q63 0 93 62q31 66 53 229l47 387h223l-47 -387q-21 -164 -90 -270.5t-172 -106.5l-76 -612h-211l74 612q-105 7 -147 111q-28 69 -28 164q0 48 7 102z" />
<glyph unicode="Z" horiz-adv-x="802" d="M45 0v86l637 1204h-477l10 86h713l-2 -86l-635 -1204h475l-10 -86h-711z" />
<glyph unicode="[" horiz-adv-x="499" d="M37 -389l209 1689l59 76h334l-10 -86h-176l-207 -1669h178l-10 -82h-334z" />
<glyph unicode="\" horiz-adv-x="843" d="M215 1374h244l356 -1374h-237z" />
<glyph unicode="]" horiz-adv-x="499" d="M-139 -461l10 86h174l207 1669h-176l10 82h334l41 -71l-207 -1690l-59 -76h-334z" />
<glyph unicode="^" horiz-adv-x="724" d="M193 979l301 407h77l203 -407l-78 -74l-178 355l-266 -355z" />
<glyph unicode="_" horiz-adv-x="608" d="M-51 -410l16 123h608l-16 -123h-608z" />
<glyph unicode="`" horiz-adv-x="399" d="M246 1296l71 88l150 -260l-72 -86z" />
<glyph unicode="a" d="M113 297q13 119 96 199q76 73 194 73h162l8 56q2 19 2 37q0 62 -27 110q-35 62 -95 62h-179l13 90h284q113 0 177 -89q49 -68 50 -173q0 -32 -5 -68l-74 -594h-223h-158q-105 0 -168 72q-35 36 -51 96q-10 37 -10 78q0 25 4 51zM334 283q-2 -16 -2 -31q0 -62 36 -106 q45 -54 89 -54h51l47 387h-55q-136 0 -166 -196z" />
<glyph unicode="b" d="M70 0l170 1376h227l-57 -446h159q109 0 174 -111q50 -85 49 -197q0 -34 -4 -71l-26 -217q-20 -153 -106.5 -243.5t-198.5 -90.5h-387zM309 92h49q60 0 112 61.5t62 147.5l39 326q2 20 2 39q0 64 -26 111q-34 61 -94 61h-54z" />
<glyph unicode="c" horiz-adv-x="667" d="M115 328l32 266q20 151 105 239.5t197 88.5h290l-12 -91h-182q-59 0 -109.5 -61t-60.5 -147l-41 -326q-2 -19 -2 -37q0 -62 27 -109q35 -61 94 -61h182l-10 -90h-289q-113 0 -177 88q-49 67 -49 172q0 32 5 68z" />
<glyph unicode="d" d="M111 330l30 262q20 151 106.5 240.5t198.5 89.5h158l53 452h226l-168 -1374h-383q-113 0 -177 90q-49 68 -49 172q0 32 5 68zM330 299q-2 -19 -2 -37q0 -64 28 -110q36 -60 95 -60h49l92 737h-51q-60 0 -110 -60.5t-60 -147.5z" />
<glyph unicode="e" d="M115 330l35 278q8 64 34 119t60 90t73 60t72 36t57 11h123q104 0 170 -72q35 -36 51 -96q11 -38 11 -81q0 -23 -4 -48q-13 -116 -99 -199q-77 -74 -194 -74h-98h-60q-7 -57 -7 -100q0 -64 15 -101q25 -61 101 -61h221l-12 -92h-326q-114 0 -178 90q-49 68 -50 172 q0 32 5 68zM354 461h56q79 0 118 39q32 32 43 127q6 60 6 99q-1 3 -1 6q0 40 -12.5 62t-26 29.5t-33.5 7.5h-15q-25 0 -46.5 -22t-35 -56.5t-21 -62t-11.5 -51.5z" />
<glyph unicode="f" horiz-adv-x="481" d="M72 0l123 999q20 162 107.5 269.5t201.5 107.5h119l-11 -84h-12q-45 0 -86 -50.5t-64.5 -115.5t-31.5 -127l-8 -73h155l-8 -86h-158l-104 -840h-223z" />
<glyph unicode="g" horiz-adv-x="768" d="M117 375l22 172q20 162 107.5 268.5t199.5 106.5h365l-125 -1012q-22 -162 -109.5 -268.5t-201.5 -106.5h-234l11 86h127q61 0 111 60.5t61 146.5l20 172h-137q-112 0 -174 107q-47 82 -47 195q0 35 4 73zM332 293q-2 -19 -2 -37q0 -62 26 -108q35 -58 97 -58h28l94 748 h-30q-60 -2 -110 -62.5t-60 -146.5z" />
<glyph unicode="h" d="M72 0l170 1376h225l-57 -452h161q111 0 172 -104q45 -76 45 -182q0 -38 -6 -81l-67 -557h-226l76 627q3 22 3 42q0 61 -26 107q-34 62 -93 64h-50l-102 -840h-225z" />
<glyph unicode="i" horiz-adv-x="370" d="M72 0l112 922h226l-113 -922h-225zM217 1184l23 186h225l-23 -186h-225z" />
<glyph unicode="j" horiz-adv-x="333" d="M-180 -498l10 86h12q60 0 110 60.5t60 146.5l138 1127h225l-129 -1045q-20 -167 -105.5 -271t-199.5 -104h-121zM182 1196l23 178h225l-22 -178h-226z" />
<glyph unicode="k" horiz-adv-x="677" d="M72 0l170 1376h223l-109 -762l269 312h143l-334 -424l258 -502h-223l-154 322l-34 -322h-209z" />
<glyph unicode="l" horiz-adv-x="565" d="M117 369l33 270l92 737h225l-92 -737l-43 -352q-2 -19 -2 -37q0 -62 26 -106q34 -58 97 -58h94l-10 -86h-84h-119q-114 0 -176 102q-46 76 -46 188q0 37 5 79z" />
<glyph unicode="m" horiz-adv-x="1153" d="M74 0l96 795q4 39 19.5 66.5t34 38.5t36.5 17q15 5 25 5h4h12h184q60 0 108.5 -37.5t78.5 -102.5q44 64 102.5 102t118.5 38h184q1 -2 13 0h5q10 0 23 -5q17 -7 32 -17q16 -10 24 -38q5 -17 6 -40q0 -13 -2 -27l-99 -795h-223l98 793q2 17 -1.5 28t-8.5 13l-4 2h-57 q-29 0 -50 -16.5t-34.5 -48t-21 -66t-13.5 -82.5l-76 -623h-223l76 623q5 59 7 107q0 4 1 7q0 43 -17 69q-18 30 -57 30h-55q-21 -4 -25 -43l-98 -793h-223z" />
<glyph unicode="n" d="M72 0l112 922h119h270q109 0 169 -107q45 -79 45 -187q0 -36 -5 -75l-67 -553h-221l75 623q2 18 2 34q1 65 -27 113q-34 60 -95 61h-54l-102 -831h-221z" />
<glyph unicode="o" d="M117 375l22 172q20 156 110 265.5t197 109.5h119q109 0 173 -110q49 -83 49 -193q0 -35 -5 -72l-20 -172q-20 -156 -110 -265.5t-199 -109.5h-119q-108 0 -172 110q-49 85 -49 196q0 33 4 69zM320 186q0 -44 18 -72t57 -28h19q29 0 49.5 15t32.5 46.5t19 64t13 81.5 l41 336q5 59 7 105q0 4 1 8q0 42 -16 68q-17 28 -55 28h-19q-55 0 -81.5 -54.5t-38.5 -154.5l-41 -336q-6 -64 -6 -107z" />
<glyph unicode="p" d="M14 -461l125 1008q20 167 108 271t199 104h119q109 0 173 -110q48 -85 48 -196q0 -33 -4 -69l-24 -191q-18 -166 -100.5 -261t-194.5 -95h-168l-57 -461h-224zM305 86h51q59 0 109.5 59t60.5 144l41 340q5 42 5 75q0 134 -80 134h-11q-20 0 -35.5 -6.5t-26 -23t-17.5 -31 t-13 -44t-8.5 -48.5t-7.5 -56z" />
<glyph unicode="q" d="M117 375l22 174q20 161 108.5 269t198.5 108h119q112 0 175 -109q47 -83 47 -194q0 -35 -5 -74l-125 -1010h-225l57 461h-155q-111 0 -174 108q-48 81 -48 193q0 35 5 74zM332 293q-3 -20 -3 -39q0 -61 27 -108q36 -60 97 -60h47l67 545l4.5 42t4.5 38q1 17 1 28v8 q-1 12 -2.5 29.5t-6.5 26.5t-12 18.5t-18 13.5t-26 5h-12q-102 0 -127 -209z" />
<glyph unicode="r" horiz-adv-x="487" d="M72 0l67 551q20 162 107 266.5t200 104.5h125l-10 -82h-20q-60 0 -110 -60.5t-60 -146.5l-78 -633h-221z" />
<glyph unicode="s" horiz-adv-x="696" d="M72 0l10 84h188h25.5h24.5t21 1t20 3t16 6t15.5 10t11 14.5t9.5 20.5t5 27l20 158v12q0 40 -18 62q-21 26 -88 26q-28 0 -48.5 2t-41 6.5t-34.5 12.5t-26.5 20t-19.5 29.5t-11.5 40.5t-4 53.5t5.5 68.5l8 52q10 58 29.5 99t43.5 63.5t61 35t70 16t82 3.5h263l-11 -86 h-180h-6q-32 0 -57 -10q-27 -12 -40 -29t-20.5 -33.5t-8.5 -28.5l-1 -12l-14 -121q-1 -9 -1 -17q0 -31 9 -49q11 -22 51 -30h43h24q41 0 61 -2q26 -4 58 -22t42 -62q6 -27 6 -66q0 -24 -2 -53l-9 -59q-15 -135 -74.5 -190.5t-172.5 -55.5h-334z" />
<glyph unicode="t" horiz-adv-x="557" d="M102 838l13 88h80l55 450h225l-57 -450h86l-10 -88h-86l-68 -551q-2 -19 -2 -36q0 -61 27 -107q35 -58 96 -58h94l-10 -86h-203q-112 0 -174 102q-47 77 -48 191q0 36 5 76l57 469h-80z" />
<glyph unicode="u" d="M117 375l67 547h226l-78 -629q-8 -45 -8 -83q0 -34 6 -61q14 -58 69 -65h15q29 1 49 16t32.5 47.5t19 63.5t13.5 82l76 629h225l-67 -547q-21 -172 -109 -273.5t-200 -101.5h-119q-110 0 -174 108q-48 82 -48 193q0 36 5 74z" />
<glyph unicode="v" horiz-adv-x="686" d="M141 926h248l82 -529h6l213 529h82l-371 -926h-112z" />
<glyph unicode="w" horiz-adv-x="1067" d="M129 924h246l82 -527h8l102 252l-43 275h248l82 -527h6l213 527h80l-369 -924h-112l-82 502l-201 -502h-115z" />
<glyph unicode="x" horiz-adv-x="835" d="M72 0l303 375l-271 549h242l182 -369l281 369h98l-338 -461l228 -463h-246l-133 279l-219 -279h-127z" />
<glyph unicode="y" horiz-adv-x="768" d="M117 375l67 551h226l-78 -633q-3 -20 -3 -39q0 -61 27 -108q36 -60 97 -60h28l105 840h225l-127 -1020q-20 -161 -109.5 -268t-199.5 -107h-234l11 86h127q61 0 110 60t60 147l22 176h-137q-110 0 -174 108q-48 81 -48 193q0 36 5 74z" />
<glyph unicode="z" horiz-adv-x="704" d="M43 0v88l494 748h-375l10 86h600v-86l-487 -748l372 -2l-10 -86h-604z" />
<glyph unicode="{" horiz-adv-x="530" d="M131 455v4q3 32 31 53q38 33 69 119q19 56 47 169t50.5 203.5t60.5 183.5t82 136q14 13 33.5 22.5t37 14t42 6.5t37 2.5t34.5 0t23 -0.5l-6 -55q-32 -4 -51 -23q-14 -14 -26 -35t-19.5 -39.5t-15 -49t-10.5 -45t-8.5 -47t-6.5 -36.5q-27 -151 -54 -256 q-18 -74 -31 -119.5t-38 -104t-56 -101.5q26 -57 33 -138q6 -7 1 -160.5t-5 -166.5q-1 -16 -4 -53t-5.5 -70t-4 -74t2 -74t11.5 -61.5t25 -44.5t41 -16l-9 -56q-17 -2 -38 0t-50 9.5t-56 25t-51 44t-40 71t-19 100.5q-2 60 0.5 164.5t2 195t-10.5 156.5q-12 62 -35 88 q-20 17 -14 58z" />
<glyph unicode="|" horiz-adv-x="452" d="M57 -455l238 1919h223l-239 -1919h-222z" />
<glyph unicode="}" horiz-adv-x="530" d="M-29 -453l6 56q34 4 52 22q17 16 30 40t22.5 56t15 54t12 57.5t8.5 44.5q29 163 53 256q26 110 53 186.5t70 139.5q-27 61 -33 137q-6 7 -1 161t5 167q1 17 4 53.5t5.5 69.5t4 74t-1.5 74t-10.5 61.5t-24 44.5t-40.5 16l8 55q21 2 47 -0.5t62.5 -17t66 -39.5t51.5 -75.5 t25 -117.5q4 -92 0.5 -172.5t-2.5 -179t12 -164.5q12 -61 33 -88q22 -19 16 -57v-2q-3 -35 -31 -56q-39 -34 -69 -118q-22 -61 -60.5 -224t-81.5 -288.5t-98 -180.5q-14 -13 -34 -22.5t-37.5 -14t-42 -6.5t-37.5 -2.5t-35 0t-23 0.5z" />
<glyph unicode="~" horiz-adv-x="905" d="M170 696q56 70 117 111q52 35 106 35q52 0 103 -35q33 -24 79 -78q68 -76 117 -76q62 0 148 111l61 -96q-61 -76 -115 -117t-112 -41q-83 0 -170 102q-24 27 -39 42.5t-40 29.5t-50 14q-64 0 -146 -102z" />
<glyph unicode="&#xa1;" horiz-adv-x="401" d="M41 -410l129 1039h221l-129 -1039h-221zM184 766l25 203h221l-27 -203h-219z" />
<glyph unicode="&#xa2;" horiz-adv-x="796" d="M74 547q0 177 41 305q40 122 119.5 189t168.5 67q31 0 72 -8l62 307l77 -33l-63 -307q69 -42 107 -114t53 -183l-123 -27q-18 113 -68 172l-153 -768q19 -8 43 -8q72 0 124 72.5t64 198.5l127 -21q-23 -182 -110 -289.5t-205 -107.5q-37 0 -72 14l-68 -344l-77 33l65 346 q-84 57 -134 188t-50 318zM205 555q0 -266 86 -358l155 764q-14 2 -34 2q-92 5 -151.5 -107t-55.5 -301z" />
<glyph unicode="&#xa3;" horiz-adv-x="870" d="M135 723l10 88h119l72 565h225l-72 -565h181l-13 -88h-180l-51 -436q-10 -85 25 -143t96 -58h262l-10 -86h-371q-114 0 -175.5 102t-41.5 267l41 354h-117z" />
<glyph unicode="&#xa5;" d="M166 268l10 92h156l22 172h-155l8 82h203q-110 0 -173.5 108t-41.5 267l47 387h225l-57 -469q-6 -59 -7 -106t16.5 -76.5t55.5 -30.5h12q29 1 50 17t33.5 48t20 65.5t13.5 82.5l58 469h223l-47 -387q-25 -194 -108.5 -285t-201.5 -98h201l-8 -74h-156l-20 -172h155 l-12 -92h-156l-32 -268h-211l33 268h-156z" />
<glyph unicode="&#xa6;" horiz-adv-x="372" d="M131 317h111v-747h-111v747zM131 641v748h111v-748h-111z" />
<glyph unicode="&#xa7;" horiz-adv-x="796" d="M92 631q0 88 37.5 157.5t101.5 98.5q-44 63 -62.5 113.5t-18.5 109.5q0 112 63 197q65 86 168 86q116 0 182 -79.5t80 -232.5l-117 -18q-12 108 -44.5 152.5t-92.5 44.5q-54 0 -90.5 -44t-36.5 -100q0 -42 23 -86q41 -64 190 -196q94 -79 135 -127q86 -105 86 -236 q0 -104 -43 -174q-32 -43 -100 -82q100 -109 100 -252q3 -124 -71.5 -212.5t-178.5 -82.5q-118 0 -188 84.5t-84 239.5l113 24q18 -116 55.5 -164.5t103.5 -48.5q62 0 100 46t38 112q0 40 -23 84q-44 70 -215 219q-97 88 -129 127q-82 105 -82 240zM195 649q0 -57 28 -106 q26 -51 129 -137q85 -70 146 -134q92 69 92 168q0 53 -33 109q-28 55 -141 151q-90 80 -129 125q-50 -42 -71 -83t-21 -93z" />
<glyph unicode="&#xa8;" horiz-adv-x="479" d="M43 1186v205h131v-205h-131zM303 1186v205h133v-205h-133z" />
<glyph unicode="&#xa9;" horiz-adv-x="1058" d="M74 735q0 173 61 328q64 164 170 242q113 84 225 84q114 0 224 -84q108 -81 172 -242q61 -155 61 -328q0 -168 -61 -323q-58 -155 -168 -242q-109 -86 -228 -86q-118 0 -227 86q-108 86 -170 242q-59 157 -59 323zM150 735q0 -139 49 -270q50 -127 140.5 -199.5 t190.5 -72.5t189 71t140.5 200t51.5 271q0 140 -53 273q-48 128 -141 200t-187 72q-95 0 -188 -72q-90 -72 -141 -200t-51 -273zM291 733q0 173 67 271t179 98q78 0 131 -54t75 -149l-71 -27q-18 65 -55 99.5t-85 34.5q-71 0 -114 -72t-43 -203q0 -130 40.5 -198t110.5 -68 q56 0 97 44.5t53 121.5l76 -33q-17 -106 -77 -171t-143 -65q-109 0 -175 100t-66 271z" />
<glyph unicode="&#xaa;" horiz-adv-x="536" d="M33 862q0 148 102 193q22 12 68 22l104 21l68 20q-3 76 -10 94q-10 26 -36 43t-65 17q-104 0 -117 -125l-96 33q9 95 63.5 152t149.5 57q114 0 164 -62q47 -62 47 -180v-240v-61q0 -131 29 -184h-105q-14 38 -14 90q-86 -109 -180 -109q-79 0 -125.5 60.5t-46.5 158.5z M137 862q0 -43 24 -70.5t66 -27.5q52 0 90.5 38.5t49.5 96.5q6 21 6 102q-36 -15 -133 -36q-63 -12 -84 -39q-19 -25 -19 -64z" />
<glyph unicode="&#xab;" d="M94 528l223 455h103l-182 -455l180 -456h-101zM369 528l219 455h106l-184 -455l184 -456h-106z" />
<glyph unicode="&#xac;" horiz-adv-x="837" d="M80 862v168h678v-606h-119v438h-559z" />
<glyph unicode="&#xad;" horiz-adv-x="581" d="M129 471l16 123h439l-17 -123h-438z" />
<glyph unicode="&#xae;" horiz-adv-x="1056" d="M70 735q0 175 61 330q67 162 172 242q112 86 227 86q116 0 228 -86q107 -82 170 -242q61 -155 61 -330q0 -170 -59 -327q-62 -157 -172 -242q-109 -86 -228 -86q-117 0 -229 86q-107 83 -170 242q-61 155 -61 327zM145 735q0 -133 52 -272q50 -127 141.5 -201t191.5 -74 q99 0 189 72q91 72 142.5 201.5t51.5 273.5q0 147 -51 275q-48 129 -143 202q-93 72 -189 72q-95 0 -188 -72q-90 -70 -143 -202q-54 -136 -54 -275zM328 373v706h172q89 0 125 -20q38 -19 62 -66.5t24 -103.5q0 -79 -40 -136.5t-102 -64.5q26 -16 41 -37q31 -46 74 -141 l59 -137h-96l-45 110q-49 131 -84 166q-22 25 -61 25h-47v-301h-82zM410 770h94q67 0 94 28t27 81q0 29 -13 55q-13 28 -35 39.5t-77 11.5h-90v-215z" />
<glyph unicode="&#xaf;" horiz-adv-x="1193" />
<glyph unicode="&#xb0;" horiz-adv-x="573" d="M88 1112q0 113 57 195q58 82 140 82q80 0 135 -82q57 -77 57 -195q0 -117 -57 -197q-54 -81 -135 -81q-82 0 -140 79q-57 85 -57 199zM166 1112q0 -69 35 -119.5t84 -50.5q47 0 81.5 50.5t34.5 119.5t-34.5 118.5t-81.5 49.5q-49 0 -84 -49.5t-35 -118.5z" />
<glyph unicode="&#xb1;" d="M55 0v168h678v-168h-678zM55 664v165h279v400h119v-400h280v-165h-280v-404h-119v404h-279z" />
<glyph unicode="&#xb2;" horiz-adv-x="477" d="M16 631q6 57 35 114q46 90 144 191q100 103 120 133q27 46 27 84q0 51 -25 81t-73 30q-47 0 -70.5 -24.5t-36.5 -90.5l-106 16q22 112 72.5 164.5t142.5 52.5q102 0 153.5 -56.5t51.5 -147.5q0 -89 -41 -158q-29 -54 -144 -172q-64 -64 -82 -96h269v-121h-437z" />
<glyph unicode="&#xb3;" horiz-adv-x="477" d="M23 831l102 15q16 -64 37 -82q31 -31 71 -31q49 0 79 38t30 95q0 111 -111 111q-12 0 -22 -2q-6 -2 -14 -2l14 110q54 0 81 28.5t27 74.5q0 38 -21.5 63t-59.5 25q-41 0 -63.5 -22t-37.5 -78l-100 22q29 106 73 148t128 42q95 0 143.5 -52t48.5 -136q0 -57 -25 -99.5 t-71 -60.5q121 -46 121 -190q0 -97 -58 -164.5t-155 -67.5q-189 0 -217 215z" />
<glyph unicode="&#xb4;" horiz-adv-x="477" d="M156 1110l92 281h166l-154 -281h-104z" />
<glyph unicode="&#xb6;" horiz-adv-x="770" d="M31 1004q0 181 78.5 284t226.5 103h407v-160h-92v-1563h-108v1563h-146v-1563h-104v963q-121 6 -191.5 108t-70.5 265z" />
<glyph unicode="&#xb7;" horiz-adv-x="487" d="M172 614v205h143v-205h-143z" />
<glyph unicode="&#xb8;" horiz-adv-x="477" d="M74 -410l10 117q58 -4 66 -4q65 0 92 27q18 21 18 49q0 32 -20.5 48t-89.5 19l38 177h93l-23 -107q58 -10 89.5 -50.5t31.5 -96.5q0 -79 -54 -135t-149 -56q-56 0 -102 12z" />
<glyph unicode="&#xb9;" horiz-adv-x="475" d="M74 1075v123q45 21 98 74.5t86 113.5h74v-751h-101v553q-69 -77 -157 -113z" />
<glyph unicode="&#xba;" horiz-adv-x="522" d="M31 1008q0 177 63 279t166 102q104 0 166.5 -101t62.5 -276q0 -171 -63 -273t-164 -102q-103 0 -167 100t-64 271zM135 1012q0 -120 34 -181t91 -61q60 0 93.5 61t33.5 187q0 118 -34 177.5t-93 59.5q-58 0 -91.5 -59.5t-33.5 -183.5z" />
<glyph unicode="&#xbb;" horiz-adv-x="796" d="M98 72l185 456l-185 455h105l221 -455l-221 -456h-105zM371 72l182 456l-182 455h104l223 -455l-223 -456h-104z" />
<glyph unicode="&#xbc;" horiz-adv-x="1570" d="M137 549l103 827h209l-103 -827h-209zM225 0l701 1378h221l-680 -1378h-242zM995 510l39 319h207l-43 -340q-7 -56 35.5 -96.5t87.5 -27.5l57 464h207l-102 -829h-205l35 285q-118 -11 -189 0q-65 12 -102 73t-27 152z" />
<glyph unicode="&#xbd;" horiz-adv-x="1409" d="M137 549l103 827h209l-103 -827h-209zM225 0l701 1378h221l-680 -1378h-242zM915 0l15 117q8 85 45 145q33 56 88 64h53q36 1 56.5 23.5t31.5 68.5q8 27 17 96q12 99 12 107q6 51 -14.5 86.5t-57.5 35.5h-104l10 82h180h45q64 0 100.5 -72.5t28.5 -172.5 q-16 -149 -37 -209q-12 -28 -27.5 -47.5t-27 -29.5t-31.5 -17t-29 -8.5t-32 -3.5q-5 -1 -8 -1h-39q-17 0 -29.5 -5.5t-21 -17t-14 -22.5t-9 -31.5t-5.5 -34t-4.5 -38.5t-4.5 -39v-17h205l-7 -59h-151h-72h-162z" />
<glyph unicode="&#xbe;" horiz-adv-x="1699" d="M150 551l10 76h121q36 0 67 40t37 93l4 35q5 34 2 77q-6 39 -24 54q-14 14 -41 14h-29l6 72h4q35 4 45 12q14 11 19 20q7 13 15.5 63.5t10.5 82.5q6 46 -16 82q-23 33 -64 33h-71l10 71h178q92 0 135 -59q43 -64 31 -158q-4 -60 -20 -102q-15 -48 -37 -72q15 -21 22 -45 q20 -74 6 -164q-11 -97 -69 -161t-144 -64h-71h-137zM354 0l701 1378h221l-682 -1378h-240zM1124 510l39 319h207l-43 -340q-7 -56 35.5 -96.5t87.5 -27.5l57 464h207l-102 -829h-205l35 285h-187q-66 0 -104 65.5t-27 159.5z" />
<glyph unicode="&#xbf;" horiz-adv-x="710" d="M41 0q16 114 72 193q31 49 112 143q90 103 129 207q14 43 25 125h215q-4 -36 -16 -99.5t-21 -85.5q-12 -32 -33.5 -66.5t-36 -53t-48.5 -57.5t-40 -46q-68 -80 -106 -155t-51 -177q-14 -125 9 -190.5t73 -65.5q17 0 31 5t25 17t19 24t15 34t11.5 39t9 47t7 50t6.5 55.5 t7 56.5h211q-12 -107 -46.5 -188t-84.5 -129t-108.5 -71.5t-125.5 -23.5q-132 0 -207.5 113.5t-52.5 298.5zM395 811l21 158h221l-21 -158h-221z" />
<glyph unicode="&#xc0;" d="M74 0l129 1047q18 151 104 240t199 89h381l-168 -1376h-223l63 545h-197l-65 -545h-223zM375 637h196l82 647h-53q-60 0 -110 -60.5t-60 -146.5zM498 1761l77 74l105 -248l-78 -74z" />
<glyph unicode="&#xc1;" d="M74 0l129 1047q18 151 104 240t199 89h381l-168 -1376h-223l63 545h-197l-65 -545h-223zM375 637h196l82 647h-53q-60 0 -110 -60.5t-60 -146.5zM498 1587l104 248l78 -74l-105 -248z" />
<glyph unicode="&#xc2;" d="M74 0l129 1047q18 151 104 240t199 89h381l-168 -1376h-223l63 545h-197l-65 -545h-223zM375 637h196l82 647h-53q-60 0 -110 -60.5t-60 -146.5zM399 1618l160 237h113l100 -247l-78 -74l-90 223l-147 -215z" />
<glyph unicode="&#xc3;" d="M74 0l129 1047q18 151 104 240t199 89h381l-168 -1376h-223l63 545h-197l-65 -545h-223zM375 637h196l82 647h-53q-60 0 -110 -60.5t-60 -146.5zM401 1614q62 110 127 123q45 10 95 -37q2 -2 8.5 -7t8 -6.5t8 -6t8 -5.5t8 -5t8 -3.5t8 -2.5t8.5 -1.5t8 0.5q33 7 74 80 l45 -86q-65 -110 -123 -123q-21 -4 -42 4t-32 16.5t-34 28.5q-40 31 -60 27q-30 -9 -78 -84z" />
<glyph unicode="&#xc4;" d="M74 0l129 1047q18 151 104 240t199 89h381l-168 -1376h-223l63 545h-197l-65 -545h-223zM375 637h196l82 647h-53q-60 0 -110 -60.5t-60 -146.5zM385 1546l23 187h116l-22 -187h-117zM653 1546l23 187h117l-23 -187h-117z" />
<glyph unicode="&#xc5;" d="M74 0l129 1047q18 151 104 240t199 89h45q-61 11 -92 70t-21 147q13 98 65 160t118 62q64 0 101 -64.5t26 -157.5q-11 -82 -52.5 -144.5t-93.5 -72.5h285l-168 -1376h-223l63 545h-197l-65 -545h-223zM375 637h196l82 647h-53q-60 0 -110 -60.5t-60 -146.5zM518 1595 q-6 -45 13 -76.5t51 -31.5q33 0 59.5 31.5t30.5 76.5q6 46 -12.5 78.5t-51.5 32.5q-32 0 -59 -32.5t-31 -78.5z" />
<glyph unicode="&#xc6;" horiz-adv-x="1255" d="M68 0l131 1047q18 151 104 240t197 89h383l-6 -49q71 49 153 49h213l-12 -90h-213q-60 0 -111 -61.5t-61 -147.5l-33 -278h354l-10 -90h-356l-76 -617h358l-10 -92h-360h-226l70 545h-197l-67 -545h-225zM373 635h194l80 649h-51q-60 0 -110 -60.5t-60 -146.5z" />
<glyph unicode="&#xc7;" d="M113 330l88 717q20 151 105.5 240t197.5 89h121q113 0 175 -98t40 -277h-224q7 59 10.5 98t4 73t-3 53.5t-12.5 34t-22.5 19.5t-33.5 5h-12q-55 0 -81 -53.5t-38 -153.5l-96 -778q-6 -59 -7 -105t17 -74t57 -28h13q57 0 82 62.5t45 220.5h223q-22 -179 -108.5 -277 t-200.5 -98h-13q32 -11 50 -50.5t12 -90.5l-8 -72q-7 -62 -43.5 -103.5t-79.5 -41.5h-115l12 86h37q20 0 36 20t19 47l9 62q3 28 -8 46.5t-31 18.5h-37l10 80q-100 12 -154 99.5t-36 228.5z" />
<glyph unicode="&#xc8;" horiz-adv-x="729" d="M74 0l127 1047q20 151 105.5 240t197.5 89h121h202l-12 -92h-215q-61 0 -111 -60.5t-61 -146.5l-39 -276h359l-11 -90h-356l-76 -619h160h203l-11 -92h-204h-379zM498 1761l77 74l105 -248l-78 -74z" />
<glyph unicode="&#xc9;" horiz-adv-x="729" d="M74 0l127 1047q20 151 105.5 240t197.5 89h121h202l-12 -92h-215q-61 0 -111 -60.5t-61 -146.5l-39 -276h359l-11 -90h-356l-76 -619h160h203l-11 -92h-204h-379zM494 1587l163 248l62 -74l-166 -248z" />
<glyph unicode="&#xca;" horiz-adv-x="729" d="M74 0l127 1047q20 151 105.5 240t197.5 89h121h202l-12 -92h-215q-61 0 -111 -60.5t-61 -146.5l-39 -276h359l-11 -90h-356l-76 -619h160h203l-11 -92h-204h-379zM395 1618l160 237h113l100 -247l-78 -74l-90 223l-147 -215z" />
<glyph unicode="&#xcb;" horiz-adv-x="729" d="M74 0l127 1047q20 151 105.5 240t197.5 89h121h202l-12 -92h-215q-61 0 -111 -60.5t-61 -146.5l-39 -276h359l-11 -90h-356l-76 -619h160h203l-11 -92h-204h-379zM367 1536l22 186h119l-23 -186h-118zM635 1536l22 186h119l-22 -186h-119z" />
<glyph unicode="&#xcc;" horiz-adv-x="301" d="M72 0l170 1376h225l-170 -1376h-225zM244 1782l78 73l104 -247l-78 -74z" />
<glyph unicode="&#xcd;" horiz-adv-x="299" d="M72 0l170 1376h223l-170 -1376h-223zM279 1608l165 247l60 -73l-164 -248z" />
<glyph unicode="&#xce;" horiz-adv-x="301" d="M72 0l170 1376h225l-170 -1376h-225zM184 1610l160 237h113l98 -248l-78 -73l-90 223l-145 -215z" />
<glyph unicode="&#xcf;" horiz-adv-x="301" d="M72 0l170 1376h225l-170 -1376h-225zM180 1538l23 188h116l-22 -188h-117zM446 1538l25 188h117l-23 -188h-119z" />
<glyph unicode="&#xd0;" horiz-adv-x="813" d="M98 0l80 659h-69l12 86h67l78 631h381q114 0 176 -98t41 -277l-78 -626q-24 -180 -109 -277.5t-198 -97.5h-381zM332 86h49q60 0 110 60.5t60 146.5l63 518q13 99 19 165.5t7.5 124t-4 90.5t-19 57t-34.5 33t-53 9h-49l-67 -547h129l-13 -86h-129z" />
<glyph unicode="&#xd1;" horiz-adv-x="843" d="M72 0l170 1376h116v-2l2 2l224 -993l131 993h225l-168 -1376h-201l-174 838l-100 -838h-225zM426 1622q61 109 125 123q46 9 96 -37q2 -1 5 -4q46 -37 67 -33q33 7 74 80l47 -86q-65 -111 -125 -123q-20 -4 -40.5 4t-32.5 16.5t-34 28.5q-39 31 -59 27q-34 -10 -78 -84z " />
<glyph unicode="&#xd2;" d="M88 375l78 624q18 166 107.5 271.5t201.5 105.5h119q110 0 172 -104.5t45 -272.5l-78 -624q-20 -167 -109 -271t-200 -104h-119q-111 0 -173 104t-44 271zM303 293q-25 -209 78 -209h10q29 0 49 15.5t32.5 47t19 64t12.5 82.5l96 788q6 59 8 105.5t-14.5 75t-54.5 28.5 h-11q-105 0 -127 -209zM496 1782l77 73l105 -247l-78 -74z" />
<glyph unicode="&#xd3;" d="M88 375l78 624q18 166 107.5 271.5t201.5 105.5h119q110 0 172 -104.5t45 -272.5l-78 -624q-20 -167 -109 -271t-200 -104h-119q-111 0 -173 104t-44 271zM303 293q-25 -209 78 -209h10q29 0 49 15.5t32.5 47t19 64t12.5 82.5l96 788q6 59 8 105.5t-14.5 75t-54.5 28.5 h-11q-105 0 -127 -209zM506 1608l166 247l59 -73l-166 -248z" />
<glyph unicode="&#xd4;" d="M88 375l78 624q18 166 107.5 271.5t201.5 105.5h119q110 0 172 -104.5t45 -272.5l-78 -624q-20 -167 -109 -271t-200 -104h-119q-111 0 -173 104t-44 271zM303 293q-25 -209 78 -209h10q29 0 49 15.5t32.5 47t19 64t12.5 82.5l96 788q6 59 8 105.5t-14.5 75t-54.5 28.5 h-11q-105 0 -127 -209zM399 1618l160 237h113l100 -247l-78 -74l-90 223l-147 -215z" />
<glyph unicode="&#xd5;" d="M88 375l78 624q18 166 107.5 271.5t201.5 105.5h119q110 0 172 -104.5t45 -272.5l-78 -624q-20 -167 -109 -271t-200 -104h-119q-111 0 -173 104t-44 271zM303 293q-25 -209 78 -209h10q29 0 49 15.5t32.5 47t19 64t12.5 82.5l96 788q6 59 8 105.5t-14.5 75t-54.5 28.5 h-11q-105 0 -127 -209zM383 1622q62 110 127 123q44 10 94 -37q2 -1 5 -4q46 -37 67 -33q33 7 74 80l47 -86q-65 -111 -125 -123q-20 -4 -40.5 4t-32.5 16.5t-34 28.5q-39 31 -59 27q-34 -10 -78 -84z" />
<glyph unicode="&#xd6;" d="M88 375l78 624q18 166 107.5 271.5t201.5 105.5h119q110 0 172 -104.5t45 -272.5l-78 -624q-20 -167 -109 -271t-200 -104h-119q-111 0 -173 104t-44 271zM303 293q-25 -209 78 -209h10q29 0 49 15.5t32.5 47t19 64t12.5 82.5l96 788q6 59 8 105.5t-14.5 75t-54.5 28.5 h-11q-105 0 -127 -209zM389 1536l23 186h116l-22 -186h-117zM657 1536l23 186h117l-23 -186h-117z" />
<glyph unicode="&#xd7;" d="M53 209l344 459l-223 467h139l174 -355l273 355h133l-352 -471l223 -455h-143l-168 336l-254 -336h-146z" />
<glyph unicode="&#xd8;" horiz-adv-x="911" d="M16 213l154 211l72 575q18 166 107.5 271.5t201.5 105.5h119q84 0 145 -67l62 84l149 -248l-147 -203l-70 -567q-20 -167 -109 -271t-200 -104h-119q-83 0 -141 61l-60 -81zM375 250q-11 -166 82 -166h10q29 0 49 15.5t32.5 47t19 64t12.5 82.5l34 285zM442 795l240 329 q7 81 -6.5 123.5t-61.5 42.5h-10q-105 0 -127 -209z" />
<glyph unicode="&#xd9;" d="M117 375l125 1001h225l-135 -1083q-25 -207 78 -207h10q20 0 35 6.5t25.5 22t18 31t13 43t9 48.5t7.5 56l134 1083h223l-123 -1001q-21 -174 -107 -274.5t-202 -100.5h-119q-113 0 -175 107t-42 268zM475 1786l78 74l104 -248l-77 -74z" />
<glyph unicode="&#xda;" d="M117 375l125 1001h225l-135 -1083q-25 -207 78 -207h10q20 0 35 6.5t25.5 22t18 31t13 43t9 48.5t7.5 56l134 1083h223l-123 -1001q-21 -174 -107 -274.5t-202 -100.5h-119q-113 0 -175 107t-42 268zM535 1602l165 247l60 -73l-166 -248z" />
<glyph unicode="&#xdb;" d="M117 375l125 1001h225l-135 -1083q-25 -207 78 -207h10q20 0 35 6.5t25.5 22t18 31t13 43t9 48.5t7.5 56l134 1083h223l-123 -1001q-21 -174 -107 -274.5t-202 -100.5h-119q-113 0 -175 107t-42 268zM401 1610l160 237h113l98 -248l-76 -73l-92 223l-143 -215z" />
<glyph unicode="&#xdc;" d="M117 375l125 1001h225l-135 -1083q-25 -207 78 -207h10q20 0 35 6.5t25.5 22t18 31t13 43t9 48.5t7.5 56l134 1083h223l-123 -1001q-21 -174 -107 -274.5t-202 -100.5h-119q-113 0 -175 107t-42 268zM397 1536l23 186h117l-23 -186h-117zM666 1536l22 186h117l-23 -186 h-116z" />
<glyph unicode="&#xdd;" d="M206.5 801.5q-11.5 81.5 0.5 187.5l47 387h217l-47 -387q-7 -52 -10 -91.5t-0.5 -85t18 -75t43.5 -39.5q68 -3 99.5 62.5t54.5 228.5l47 387h221l-47 -387q-20 -164 -89 -270.5t-173 -106.5l-74 -612h-213l74 612q-70 5 -113.5 56.5t-55 133zM528 1626l164 248l60 -74 l-166 -248z" />
<glyph unicode="&#xde;" horiz-adv-x="694" d="M29 0l161 1313h226l-31 -236h115q111 0 172 -98q65 -100 47 -260l-23 -184q-13 -109 -75.5 -180.5t-178.5 -71.5h-153l-37 -283h-223zM299 367h33q55 0 95.5 54t47.5 114q14 99 21.5 164t9.5 82.5t2 19.5q7 70 -27 137q-35 53 -98 53h-8z" />
<glyph unicode="&#xdf;" d="M72 0l123 1001q21 167 109.5 271t199.5 104h76q111 0 170 -100q68 -105 47 -258q0 -13 -4 -33q-17 -97 -21 -115q-19 -67 -51 -106q26 -49 33 -72q31 -99 14 -256l-8 -61q-13 -112 -40 -188t-67 -116t-84 -55.5t-102 -15.5q-72 0 -90.5 71t4.5 205l29 148l77 -2 q-5 -10 -13 -28t-25.5 -66.5t-25.5 -89t-3 -83.5t31 -63q29 -6 48 7.5t28.5 47t13.5 68t6 86.5l4 176q4 88 -2 131q-9 63 -39 90q-18 18 -84 23l12 84q31 1 58 9t36 15q10 10 19 41q4 12 14.5 92t12.5 105l4 33q13 90 -25 137q-37 47 -79 -3q-44 -51 -56 -151l-133 -1083 h-217z" />
<glyph unicode="&#xe0;" d="M113 297q13 119 96 199q76 73 194 73h162l8 56q10 86 -25 147.5t-95 61.5h-179l13 90h284q113 0 177.5 -89t44.5 -241l-74 -594h-381q-105 0 -168 72q-35 36 -51 96.5t-6 128.5zM334 283q-11 -83 34 -137t89 -54h51l47 387h-55q-136 0 -166 -196zM428 1294l78 74 l104 -248l-78 -73z" />
<glyph unicode="&#xe1;" d="M113 297q13 119 96 199q76 73 194 73h162l8 56q10 86 -25 147.5t-95 61.5h-179l13 90h284q113 0 177.5 -89t44.5 -241l-74 -594h-381q-105 0 -168 72q-35 36 -51 96.5t-6 128.5zM334 283q-11 -83 34 -137t89 -54h51l47 387h-55q-136 0 -166 -196zM477 1122l166 248 l59 -74l-165 -247z" />
<glyph unicode="&#xe2;" d="M113 297q13 119 96 199q76 73 194 73h162l8 56q10 86 -25 147.5t-95 61.5h-179l13 90h284q113 0 177.5 -89t44.5 -241l-74 -594h-381q-105 0 -168 72q-35 36 -51 96.5t-6 128.5zM334 283q-11 -83 34 -137t89 -54h51l47 387h-55q-136 0 -166 -196zM379 1139l158 237h112 l101 -248l-78 -73l-90 223l-146 -215z" />
<glyph unicode="&#xe3;" d="M113 297q13 119 96 199q76 73 194 73h162l8 56q10 86 -25 147.5t-95 61.5h-179l13 90h284q113 0 177.5 -89t44.5 -241l-74 -594h-381q-105 0 -168 72q-35 36 -51 96.5t-6 128.5zM334 283q-11 -83 34 -137t89 -54h51l47 387h-55q-136 0 -166 -196zM352 1245 q62 110 123 123q46 9 96 -37q51 -41 72 -37q35 8 76 80l45 -86q-62 -110 -123 -123q-21 -4 -42 4t-33 16.5t-34 28.5q-35 31 -59 27q-34 -10 -78 -84z" />
<glyph unicode="&#xe4;" d="M113 297q13 119 96 199q76 73 194 73h162l8 56q10 86 -25 147.5t-95 61.5h-179l13 90h284q113 0 177.5 -89t44.5 -241l-74 -594h-381q-105 0 -168 72q-35 36 -51 96.5t-6 128.5zM334 283q-11 -83 34 -137t89 -54h51l47 387h-55q-136 0 -166 -196zM348 1190l23 186h118 l-22 -186h-119zM616 1190l23 186h119l-25 -186h-117z" />
<glyph unicode="&#xe5;" d="M113 297q13 119 96 199q76 73 194 73h162l8 56q10 86 -25 147.5t-95 61.5h-179l13 90h284q113 0 177.5 -89t44.5 -241l-74 -594h-223h-158q-105 0 -168 72q-35 36 -51 96.5t-6 128.5zM334 283q-11 -83 34 -137t89 -54h51l47 387h-55q-136 0 -166 -196zM414 1182 q10 79 55.5 134.5t99.5 55.5q55 0 86.5 -55t22.5 -135q-9 -77 -55 -132t-101 -55q-54 0 -85.5 55t-22.5 132zM500 1190q-3 -31 7 -50.5t30 -19.5q22 0 38 19.5t19 50.5q5 30 -6 50t-33 20q-20 0 -36 -20.5t-19 -49.5z" />
<glyph unicode="&#xe6;" horiz-adv-x="1191" d="M76 297q13 120 98 199q73 73 195 73h159l9 64q9 83 -26 142t-93 59h-178l12 90h283q87 0 151 -58q82 58 148 58h120q104 0 170 -72q34 -37 50.5 -96.5t7.5 -128.5q-13 -116 -99 -199q-74 -74 -194 -74h-158q-17 -140 8 -201t101 -61h221l-12 -92h-326h-420 q-107 0 -170 72q-34 36 -50 96t-7 129zM299 283q-11 -83 33 -137t88 -54h51l47 387h-55q-46 0 -79.5 -22t-50 -57.5t-24 -62t-10.5 -54.5zM739 461h58q73 0 118 39q29 32 43 127q14 119 -5.5 161.5t-61.5 42.5h-17q-33 0 -59.5 -40t-37.5 -79.5t-15 -72.5z" />
<glyph unicode="&#xe7;" horiz-adv-x="696" d="M111 328l32 270q20 151 104.5 239.5t196.5 88.5h289l-10 -90h-182q-60 0 -109.5 -61.5t-60.5 -147.5l-41 -330q-10 -85 25 -146t94 -61h182l-10 -90h-189q35 -8 55.5 -48.5t14.5 -94.5l-8 -72q-7 -62 -43.5 -103.5t-79.5 -41.5h-115l6 45h41q21 0 37.5 20t19.5 47l17 144 q5 28 -6 46.5t-33 18.5h-41l6 41q-100 11 -155 98.5t-37 227.5z" />
<glyph unicode="&#xe8;" d="M115 330l35 278q8 64 34 119t60 90t73 60t72 36t57 11h123q104 0 170 -72q34 -37 50.5 -96.5t7.5 -128.5q-13 -116 -99 -199q-77 -74 -194 -74h-98h-60q-17 -140 8 -201t101 -61h221l-12 -92h-326q-114 0 -178.5 89.5t-44.5 240.5zM354 461h56q79 0 118 39q32 32 43 127 q6 65 5.5 105t-13 62t-26 29.5t-33.5 7.5h-15q-25 0 -46.5 -22t-35 -56.5t-21 -62t-11.5 -51.5zM393 1298l60 74l165 -248l-59 -73z" />
<glyph unicode="&#xe9;" d="M115 330l35 278q8 64 34 119t60 90t73 60t72 36t57 11h123q104 0 170 -72q34 -37 50.5 -96.5t7.5 -128.5q-13 -116 -99 -199q-77 -74 -194 -74h-98h-60q-17 -140 8 -201t101 -61h221l-12 -92h-326q-114 0 -178.5 89.5t-44.5 240.5zM354 461h56q79 0 118 39q32 32 43 127 q6 65 5.5 105t-13 62t-26 29.5t-33.5 7.5h-15q-25 0 -46.5 -22t-35 -56.5t-21 -62t-11.5 -51.5zM453 1124l165 248l58 -74l-164 -247z" />
<glyph unicode="&#xea;" d="M115 330l35 278q8 64 34 119t60 90t73 60t72 36t57 11h123q104 0 170 -72q34 -37 50.5 -96.5t7.5 -128.5q-13 -116 -99 -199q-77 -74 -194 -74h-98h-60q-17 -140 8 -201t101 -61h221l-12 -92h-326q-114 0 -178.5 89.5t-44.5 240.5zM350 1139l160 237h111l100 -248 l-78 -73l-90 223l-145 -215zM354 461h56q79 0 118 39q32 32 43 127q6 65 5.5 105t-13 62t-26 29.5t-33.5 7.5h-15q-25 0 -46.5 -22t-35 -56.5t-21 -62t-11.5 -51.5z" />
<glyph unicode="&#xeb;" d="M115 330l35 278q8 64 34 118.5t60 89.5t73 60t72 35.5t57 10.5h123q106 0 170 -70q34 -37 50.5 -96.5t7.5 -128.5q-13 -116 -99 -199q-77 -74 -194 -74h-98h-60q-17 -140 8 -201t101 -61h221l-12 -92h-326q-114 0 -178.5 89.5t-44.5 240.5zM348 1190l23 186h118l-22 -186 h-119zM354 461h56q79 0 118 39q32 32 43 127q6 65 5.5 105t-13 62t-26 29.5t-33.5 7.5h-15q-25 0 -46.5 -22t-35 -56.5t-21 -62t-11.5 -51.5zM616 1190l23 186h119l-25 -186h-117z" />
<glyph unicode="&#xec;" horiz-adv-x="370" d="M72 0l112 924h226l-113 -924h-225zM143 1298l60 74l166 -248l-60 -73z" />
<glyph unicode="&#xed;" horiz-adv-x="370" d="M72 0l112 922h226l-113 -922h-225zM223 1124l166 248l60 -74l-164 -247z" />
<glyph unicode="&#xee;" horiz-adv-x="370" d="M72 0l112 924h226l-113 -924h-225zM113 1139l157 237h113l100 -248l-80 -73l-88 223l-145 -215z" />
<glyph unicode="&#xef;" horiz-adv-x="370" d="M72 0l112 924h226l-113 -924h-225zM131 1188l23 186h116l-22 -186h-117zM399 1188l23 186h117l-23 -186h-117z" />
<glyph unicode="&#xf0;" horiz-adv-x="747" d="M109 408l2 24q20 171 118.5 295.5t223.5 134.5h18q117 0 188 -108q3 46 3 88q0 144 -19 202l-131 -141l-39 82l156 166q-7 29 -23.5 49.5t-34 30.5t-45 16.5t-44 7.5t-44.5 2l8 72q82 0 142.5 -23.5t107.5 -88.5l107 112l41 -80l-111 -116q34 -86 41 -261 q3 -112 -16 -245q-18 -162 -51 -282.5t-103 -209.5q-45 -57 -103.5 -93t-119.5 -42h-14q-126 0 -199 117q-74 121 -59 291zM298 251.5q1 -76.5 20.5 -128t56.5 -51.5h10q49 0 90.5 74.5t61.5 180t24 211.5t-22.5 180.5t-77.5 74.5h-10q-57 0 -90 -91t-58 -286 q-6 -88 -5 -164.5z" />
<glyph unicode="&#xf1;" d="M72 0l112 924h119h270q109 0 169 -107t40 -262l-67 -555h-221l75 625q9 86 -25.5 147t-94.5 62h-54l-102 -834h-221zM340 1233q61 109 125 123q27 6 48 -4t46 -33q3 -2 11.5 -8.5t11 -8.5t10.5 -7.5t10.5 -6t10.5 -4.5t10 -2.5t10 0.5q33 7 74 80l47 -86 q-68 -111 -125 -123q-20 -4 -41 4t-32 16t-36 29q-35 31 -59 27q-32 -11 -76 -84z" />
<glyph unicode="&#xf2;" d="M117 375l22 176q20 156 110 265.5t197 109.5h119q109 0 173 -109.5t44 -265.5l-20 -176q-20 -156 -110 -265.5t-199 -109.5h-119q-109 0 -172.5 110t-44.5 265zM319.5 188q-0.5 -46 18 -74t57.5 -28h19q29 0 49.5 15t32.5 46.5t19 64t13 81.5l41 340q6 59 7.5 105.5 t-15.5 75t-55 28.5h-19q-55 0 -81.5 -54.5t-38.5 -154.5l-41 -340q-6 -59 -6.5 -105zM381 1298l61 74l164 -248l-59 -73z" />
<glyph unicode="&#xf3;" d="M117 375l22 176q20 156 110 265.5t197 109.5h119q109 0 173 -109.5t44 -265.5l-20 -176q-20 -156 -110 -265.5t-199 -109.5h-119q-109 0 -172.5 110t-44.5 265zM319.5 188q-0.5 -46 18 -74t57.5 -28h19q29 0 49.5 15t32.5 46.5t19 64t13 81.5l41 340q6 59 7.5 105.5 t-15.5 75t-55 28.5h-19q-55 0 -81.5 -54.5t-38.5 -154.5l-41 -340q-6 -59 -6.5 -105zM457 1112l166 248l59 -74l-166 -248z" />
<glyph unicode="&#xf4;" d="M117 375l22 176q20 156 110 265.5t197 109.5h119q109 0 173 -109.5t44 -265.5l-20 -176q-20 -156 -110 -265.5t-199 -109.5h-119q-109 0 -172.5 110t-44.5 265zM319.5 188q-0.5 -46 18 -74t57.5 -28h19q29 0 49.5 15t32.5 46.5t19 64t13 81.5l41 340q6 59 7.5 105.5 t-15.5 75t-55 28.5h-19q-55 0 -81.5 -54.5t-38.5 -154.5l-41 -340q-6 -59 -6.5 -105zM350 1139l160 237h111l100 -248l-78 -73l-90 223l-145 -215z" />
<glyph unicode="&#xf5;" d="M117 375l22 176q20 156 110 265.5t197 109.5h119q109 0 173 -109.5t44 -265.5l-20 -176q-20 -156 -110 -265.5t-199 -109.5h-119q-109 0 -172.5 110t-44.5 265zM319.5 188q-0.5 -46 18 -74t57.5 -28h19q29 0 49.5 15t32.5 46.5t19 64t13 81.5l41 340q6 59 7.5 105.5 t-15.5 75t-55 28.5h-19q-55 0 -81.5 -54.5t-38.5 -154.5l-41 -340q-6 -59 -6.5 -105zM342 1247q65 110 125 123q47 10 94 -37q4 -3 14 -10t13.5 -9.5t13 -8t12 -6t11 -3.5t10.5 0q35 8 76 80l47 -86q-65 -110 -125 -123q-21 -4 -42.5 4t-32.5 17t-34 29q-34 31 -57 26 q-35 -9 -80 -84z" />
<glyph unicode="&#xf6;" d="M117 375l22 176q20 156 110 265.5t197 109.5h119q109 0 173 -109.5t44 -265.5l-20 -176q-20 -156 -110 -265.5t-199 -109.5h-119q-109 0 -172.5 110t-44.5 265zM319.5 188q-0.5 -46 18 -74t57.5 -28h19q29 0 49.5 15t32.5 46.5t19 64t13 81.5l41 340q6 59 7.5 105.5 t-15.5 75t-55 28.5h-19q-55 0 -81.5 -54.5t-38.5 -154.5l-41 -340q-6 -59 -6.5 -105zM348 1190l23 186h118l-22 -186h-119zM616 1190l23 186h119l-25 -186h-117z" />
<glyph unicode="&#xf7;" horiz-adv-x="606" d="M150 641l16 123h463l-15 -123h-464zM299 328l6 57l14 117h115l-20 -174h-115zM358 905l9 58l14 116h115l-23 -174h-115z" />
<glyph unicode="&#xf8;" d="M70 150l53 61q-15 74 -6 164l22 176q20 156 110 265.5t197 109.5h119q75 0 135 -60l52 58l75 -152l-51 -57q17 -83 6 -164l-20 -176q-20 -156 -110 -265.5t-199 -109.5h-119q-76 0 -133 57l-43 -49zM317 193q7 -107 78 -107h19q29 0 49.5 15t32.5 46.5t19 64t13 81.5 l19 160zM346 465l229 260q3 117 -69 117h-19q-55 0 -81.5 -54.5t-38.5 -154.5z" />
<glyph unicode="&#xf9;" d="M117 375l67 549h226l-78 -631q-15 -86 -1.5 -144t68.5 -65h15q29 1 49 16t32.5 47.5t19 63.5t13.5 82l76 631h225l-67 -549q-21 -172 -109 -273.5t-200 -101.5h-119q-110 0 -173.5 107.5t-43.5 267.5zM424 1296l76 74l104 -248l-76 -73z" />
<glyph unicode="&#xfa;" d="M117 375l67 549h226l-78 -631q-15 -86 -1.5 -144t68.5 -65h15q29 1 49 16t32.5 47.5t19 63.5t13.5 82l76 631h225l-67 -549q-21 -172 -109 -273.5t-200 -101.5h-119q-110 0 -173.5 107.5t-43.5 267.5zM467 1124l166 248l59 -74l-164 -247z" />
<glyph unicode="&#xfb;" d="M117 375l67 549h226l-78 -631q-15 -86 -1.5 -144t68.5 -65h15q29 1 49 16t32.5 47.5t19 63.5t13.5 82l76 631h225l-67 -549q-21 -172 -109 -273.5t-200 -101.5h-119q-110 0 -173.5 107.5t-43.5 267.5zM350 1139l160 237h111l100 -248l-78 -73l-90 223l-145 -215z" />
<glyph unicode="&#xfc;" d="M117 375l67 549h226l-78 -631q-15 -86 -1.5 -144t68.5 -65h15q29 1 49 16t32.5 47.5t19 63.5t13.5 82l76 631h225l-67 -549q-21 -172 -109 -273.5t-200 -101.5h-119q-110 0 -173.5 107.5t-43.5 267.5zM348 1190l23 186h118l-22 -186h-119zM616 1190l23 186h119l-25 -186 h-117z" />
<glyph unicode="&#xfd;" horiz-adv-x="768" d="M117 375l67 549h226l-78 -631q-11 -86 24.5 -146.5t96.5 -60.5h28l105 838h225l-127 -1018q-20 -161 -109.5 -268t-199.5 -107h-234l11 86h127q61 0 110 60t60 147l22 176h-137q-110 0 -173.5 107.5t-43.5 267.5zM469 1122l164 248l61 -74l-166 -247z" />
<glyph unicode="&#xfe;" d="M72 -453l137 1129l78 676h223l-49 -428h117q53 0 98 -26t74 -73q65 -100 47 -260q-4 -29 -11.5 -92t-14.5 -130.5t-9 -82.5q-6 -52 -23 -95t-46.5 -79.5t-76 -57t-106.5 -20.5h-156l-59 -461h-223zM365 92h32q55 0 96 54t48 114q14 100 24.5 194.5t15.5 142.5t5 50 q8 73 -29 137q-31 54 -96 54h-8l-21 -162z" />
<glyph unicode="&#xff;" horiz-adv-x="768" d="M117 375l67 547h226l-78 -629q-11 -86 24.5 -146.5t96.5 -60.5h28l105 836h225l-127 -1016q-20 -161 -109.5 -268t-199.5 -107h-234l11 86h127q61 0 110 60t60 147l22 176h-137q-110 0 -173.5 107.5t-43.5 267.5zM348 1190l23 186h118l-22 -186h-119zM616 1190l23 186 h119l-25 -186h-117z" />
<glyph unicode="&#x152;" horiz-adv-x="1433" d="M90 696q0 307 98 510q103 207 316 207q184 0 278 -211v189h580v-166h-453v-424h418v-164h-418v-475h475v-164h-602v203q-95 -226 -278 -226q-208 0 -320 220q-94 199 -94 501zM231 682q0 -289 78 -424q79 -135 195 -135q110 0 190 135q80 136 80 449q0 288 -80 421 q-80 136 -190 136q-71 0 -139 -62q-134 -125 -134 -520z" />
<glyph unicode="&#x153;" horiz-adv-x="1353" d="M57 539q0 177 41 301q40 131 123 198.5t189 67.5q94 0 166.5 -56t109.5 -147q43 95 114 149t156 54q154 0 250 -152q97 -154 94 -450h-548q3 -170 63 -262q66 -97 158 -97q70 0 119.5 56.5t70.5 165.5l127 -27q-31 -165 -113 -254.5t-206 -89.5q-94 0 -168 52.5 t-117 146.5q-112 -199 -278 -199q-160 0 -254 143q-97 141 -97 400zM186 553q0 -189 52 -283q61 -125 165 -125q91 0 156 105q66 111 66 305q0 191 -63 297t-159 106q-94 6 -157 -112t-60 -293zM756 651h411q-9 149 -63.5 228t-138.5 79q-86 0 -143 -83t-66 -224z" />
<glyph unicode="&#x178;" d="M195 989l47 387h217l-47 -387q-7 -52 -10 -91.5t-0.5 -85t18 -75t43.5 -39.5q68 -3 98.5 62.5t52.5 228.5l48 387h223l-47 -387q-21 -164 -90.5 -270.5t-172.5 -106.5l-75 -612h-211l73 612q-105 7 -146.5 111t-20.5 266zM383 1536l23 186h118l-24 -186h-117zM651 1536 l23 186h117l-23 -186h-117z" />
<glyph unicode="&#x2c6;" horiz-adv-x="477" d="M16 1108l154 281h133l158 -281h-144l-75 170l-80 -170h-146z" />
<glyph unicode="&#x2dc;" horiz-adv-x="477" d="M4 1157q0 108 41 166q40 63 102 63q44 0 117 -55q45 -28 68 -28q22 0 33.5 18t17.5 68h90q-1 -112 -38.5 -170t-98.5 -58q-43 0 -117 56q-45 36 -69 36q-22 0 -37 -24t-15 -72h-94z" />
<glyph unicode="&#x2000;" horiz-adv-x="937" />
<glyph unicode="&#x2001;" horiz-adv-x="1874" />
<glyph unicode="&#x2002;" horiz-adv-x="937" />
<glyph unicode="&#x2003;" horiz-adv-x="1874" />
<glyph unicode="&#x2004;" horiz-adv-x="624" />
<glyph unicode="&#x2005;" horiz-adv-x="468" />
<glyph unicode="&#x2006;" horiz-adv-x="312" />
<glyph unicode="&#x2007;" horiz-adv-x="312" />
<glyph unicode="&#x2008;" horiz-adv-x="234" />
<glyph unicode="&#x2009;" horiz-adv-x="374" />
<glyph unicode="&#x200a;" horiz-adv-x="104" />
<glyph unicode="&#x2010;" horiz-adv-x="581" d="M129 471l16 123h439l-17 -123h-438z" />
<glyph unicode="&#x2011;" horiz-adv-x="581" d="M129 471l16 123h439l-17 -123h-438z" />
<glyph unicode="&#x2012;" horiz-adv-x="581" d="M129 471l16 123h439l-17 -123h-438z" />
<glyph unicode="&#x2013;" horiz-adv-x="790" d="M-2 459v143h797v-143h-797z" />
<glyph unicode="&#x2014;" horiz-adv-x="1433" d="M0 459v143h1434v-143h-1434z" />
<glyph unicode="&#x2018;" horiz-adv-x="286" d="M227 1147l29 229h76l-8 -65q-2 -14 13 -47t11 -64l-4 -31l-2 -22q-4 -34 -24.5 -58t-43.5 -24q-25 0 -38.5 24t-8.5 58z" />
<glyph unicode="&#x2019;" horiz-adv-x="286" d="M238 1241l4 31l4 22q5 34 24 58t43 24q23 0 37 -24t10 -58l-28 -225h-76l6 61q2 15 -12.5 47.5t-11.5 63.5z" />
<glyph unicode="&#x201a;" horiz-adv-x="260" d="M51 -201q38 24 56.5 71t19.5 130h-68v209h138v-166q0 -129 -23 -193q-26 -78 -94 -120z" />
<glyph unicode="&#x201c;" horiz-adv-x="485" d="M227 1145l29 231h76l-8 -67q-2 -14 13 -47t11 -64l-4 -31l-2 -22q-4 -34 -24.5 -58t-43.5 -24q-25 0 -38.5 24t-8.5 58zM424 1145l29 231h77l-8 -67q-2 -15 13 -47.5t12 -63.5l-4 -31l-4 -22q-5 -34 -24.5 -58t-43.5 -24q-23 0 -37 24t-10 58z" />
<glyph unicode="&#x201d;" horiz-adv-x="471" d="M238 1241l4 31l4 22q5 34 24 58t43 24q23 0 37 -24t10 -58l-28 -229h-78l8 65q2 15 -12.5 47.5t-11.5 63.5zM422 1241l4 31l2 22q4 34 24.5 58t43.5 24q25 0 38.5 -24t8.5 -58l-27 -221h-78l8 57q2 14 -13 47t-11 64z" />
<glyph unicode="&#x201e;" horiz-adv-x="477" d="M51 -201q38 24 56.5 71t19.5 130h-68v209h138v-166q0 -129 -23 -193q-26 -78 -94 -120zM266 -201q38 23 56.5 70t21.5 131h-65v209h135v-166q0 -129 -23 -193q-30 -79 -92 -120z" />
<glyph unicode="&#x2022;" horiz-adv-x="503" d="M76 719q0 102 51 178q56 74 127 74q72 0 125 -74t53 -178q0 -106 -53 -180t-125 -74q-71 0 -127 74q-51 76 -51 180z" />
<glyph unicode="&#x2026;" horiz-adv-x="1435" d="M168 0v205h143v-205h-143zM645 0v205h143v-205h-143zM1122 0v205h146v-205h-146z" />
<glyph unicode="&#x202f;" horiz-adv-x="374" />
<glyph unicode="&#x2039;" horiz-adv-x="477" d="M66 526l219 457h104l-186 -457l186 -454h-104z" />
<glyph unicode="&#x203a;" horiz-adv-x="477" d="M66 72l184 458l-184 453h104l211 -446l-211 -465h-104z" />
<glyph unicode="&#x205f;" horiz-adv-x="468" />
<glyph unicode="&#x20ac;" horiz-adv-x="815" d="M92 512l10 88h72l14 129h-71l12 84h72l22 178q19 156 110 269.5t199 113.5h119q108 0 171 -113.5t44 -269.5h-223q4 37 6.5 63t5 64.5t-1 65t-10 52.5t-21 39t-36.5 13q-103 0 -129 -215l-31 -260h180l-12 -84h-180l-15 -129h181l-11 -88h-180l-29 -219 q-11 -92 11.5 -149.5t81.5 -57.5q36 3 65 80t47 209h226q-20 -155 -110.5 -265t-199.5 -110h-119q-109 0 -172.5 110t-44.5 265l19 137h-72z" />
<glyph unicode="&#x2122;" horiz-adv-x="1431" d="M172 1280v109h422v-109h-168v-629h-86v629h-168zM651 651v738h127l131 -590l125 590h125v-738h-78v619l-133 -619h-80l-137 629v-629h-80z" />
<glyph unicode="&#x25fc;" horiz-adv-x="921" d="M0 0v922h922v-922h-922z" />
<glyph unicode="&#xfb01;" horiz-adv-x="716" d="M16 844v139h111v102q0 326 201 326q66 0 127 -22l-21 -152q-33 8 -67 8q-67 0 -91 -37q-22 -34 -22 -157v-68h145v-139h-145v-842h-127v842h-111zM494 2v981h124v-981h-124zM494 1180v206h124v-206h-124z" />
<glyph unicode="&#xfb02;" horiz-adv-x="716" d="M16 844v139h111v102q0 326 201 326q66 0 127 -22l-21 -152q-33 8 -67 8q-67 0 -91 -37q-22 -34 -22 -157v-68h145v-139h-145v-844h-127v844h-111zM492 0v1386h126v-1386h-126z" />
</font>
</defs>
</svg>
